<?xml version="1.0" encoding="utf-8"?>
<svg width="417px" height="131px" viewBox="0 0 417 131" version="1.1" xmlns:xlink="http://www.w3.org/1999/xlink" xmlns="http://www.w3.org/2000/svg">
  <g id="Logo">
    <g id="Key" fill="#0AD67E" transform="translate(0 8)">
      <path d="M20.64 51.884L23.664 51.884Q25.488 51.884 26.688 51.38Q27.888 50.876 28.752 49.772L47.904 25.532Q49.104 23.996 50.424 23.396Q51.744 22.796 53.76 22.796L64.896 22.796L41.52 51.644Q39.456 54.284 37.248 55.388Q38.832 55.964 40.104 56.996Q41.376 58.028 42.528 59.708L66.624 92.204L55.248 92.204C53.712 92.204 52.568 91.988 51.816 91.556Q50.688 90.908 49.92 89.66L30.288 64.028Q29.376 62.732 28.176 62.204Q26.976 61.676 24.72 61.676L20.64 61.676L20.64 92.204L7.728 92.204L7.728 22.796L20.64 22.796L20.64 51.884ZM80.784 69.068Q81.072 72.86 82.128 75.62Q83.184 78.38 84.912 80.18Q86.64 81.98 89.016 82.868Q91.392 83.756 94.272 83.756Q97.152 83.756 99.24 83.084Q101.328 82.412 102.888 81.596Q104.448 80.78 105.624 80.108Q106.8 79.436 107.904 79.436Q109.392 79.436 110.112 80.54L113.52 84.86Q111.552 87.164 109.104 88.724Q106.656 90.284 103.992 91.22Q101.328 92.156 98.568 92.54Q95.808 92.924 93.216 92.924Q88.08 92.924 83.664 91.22Q79.248 89.516 75.984 86.18Q72.72 82.844 70.848 77.924Q68.976 73.004 68.976 66.524Q68.976 61.484 70.608 57.044Q72.24 52.604 75.288 49.316Q78.336 46.028 82.728 44.108Q87.12 42.188 92.64 42.188Q97.296 42.188 101.232 43.676Q105.168 45.164 108 48.02Q110.832 50.876 112.44 55.028Q114.048 59.18 114.048 64.508Q114.048 67.196 113.472 68.132Q112.896 69.068 111.264 69.068L80.784 69.068ZM140.832 105.74L167.664 42.956L158.16 42.956Q157.056 42.956 156.168 43.58Q155.28 44.204 154.896 45.164L145.008 70.652Q144.48 71.948 144.048 73.268Q143.616 74.588 143.184 75.932Q142.848 74.588 142.488 73.292Q142.128 71.996 141.6 70.7L131.136 45.164Q130.752 44.3 129.96 43.628Q129.168 42.956 127.776 42.956L117.36 42.956L137.28 88.508L128.064 108.284L136.896 108.284Q138.624 108.284 139.464 107.636Q140.304 106.988 140.832 105.74ZM103.392 61.916Q103.392 59.612 102.744 57.572Q102.096 55.532 100.8 53.996Q99.504 52.46 97.512 51.572Q95.52 50.684 92.88 50.684Q87.744 50.684 84.792 53.612Q81.84 56.54 81.024 61.916L103.392 61.916Z" />
    </g>
    <g id="Node" fill="#404040" transform="translate(168.00002 0)">
      <path d="M159.211 100.703Q149.508 100.703 144.07 93.6719Q138.633 86.6406 138.633 73.9375Q138.633 61.1875 144.141 54.0859Q149.648 46.9844 159.398 46.9844Q169.617 46.9844 174.961 54.5313L175.523 54.5313Q174.727 48.9531 174.727 45.7188L174.727 26.8281L185.789 26.8281L185.789 99.7656L177.164 99.7656L175.242 92.9688L174.727 92.9688Q169.43 100.703 159.211 100.703ZM52.4297 99.7656L66.1641 99.7656L66.1641 31.2344L55.8984 31.2344L55.8984 67.1406Q55.8984 70.9375 56.1797 77.7109Q56.4609 84.4844 56.5547 85.5625L56.2734 85.5625L22.6641 31.2344L9.07031 31.2344L9.07031 99.7656L19.2422 99.7656L19.2422 64.1406Q19.2422 56.9219 18.5859 48.2031L18.3516 45.1563L18.7266 45.1563L52.4297 99.7656ZM122.555 93.5781Q129.07 86.4531 129.07 73.75Q129.07 61.4688 122.508 54.2266Q115.945 46.9844 104.695 46.9844Q92.9297 46.9844 86.4609 54.0625Q79.9922 61.1406 79.9922 73.75Q79.9922 81.8594 82.9922 88Q85.9922 94.1406 91.5703 97.4219Q97.1484 100.703 104.414 100.703Q116.039 100.703 122.555 93.5781ZM205.266 93.6484Q212.086 100.703 224.18 100.703Q229.477 100.703 233.602 99.9063Q237.727 99.1094 241.758 97.1875L241.758 88.2344Q237.211 90.25 233.25 91.1172Q229.289 91.9844 224.695 91.9844Q217.711 91.9844 213.867 87.9297Q210.023 83.875 209.789 76.3281L244.336 76.3281L244.336 70.375Q244.336 59.4531 238.383 53.2188Q232.43 46.9844 222.164 46.9844Q211.102 46.9844 204.773 54.25Q198.445 61.5156 198.445 74.2188Q198.445 86.5938 205.266 93.6484ZM213.75 58.6563Q216.914 55.3281 222.164 55.3281Q227.414 55.3281 230.414 58.6328Q233.414 61.9375 233.508 68.3594L209.977 68.3594Q210.586 61.9844 213.75 58.6563ZM104.602 91.7031Q91.3359 91.7031 91.3359 73.75Q91.3359 65.1719 94.4531 60.5781Q97.5703 55.9844 104.508 55.9844Q117.727 55.9844 117.727 73.75Q117.727 91.7031 104.602 91.7031ZM162.164 91.7969Q168.961 91.7969 172.055 87.9766Q175.148 84.1563 175.242 75.5781L175.242 74.0313Q175.242 64.2344 172.055 60.1094Q168.867 55.9844 162.07 55.9844Q156.258 55.9844 153.117 60.6953Q149.977 65.4063 149.977 74.125Q149.977 82.75 153.023 87.2734Q156.07 91.7969 162.164 91.7969Z" />
    </g>
  </g>
</svg>